<?xml version="1.0" encoding="UTF-8"?>
<svg id="Layer_2" data-name="Layer 2" xmlns="http://www.w3.org/2000/svg" xmlns:xlink="http://www.w3.org/1999/xlink" viewBox="0 0 159.16 63.41">
  <defs>
    <style>
      .cls-1 {
        fill: url(#linear-gradient);
      }

      .cls-1, .cls-2, .cls-3, .cls-4, .cls-5, .cls-6, .cls-7, .cls-8, .cls-9 {
        stroke-width: 0px;
      }

      .cls-2 {
        fill: url(#linear-gradient-6);
      }

      .cls-3 {
        fill: url(#linear-gradient-5);
      }

      .cls-4 {
        fill: url(#linear-gradient-2);
      }

      .cls-5 {
        fill: url(#linear-gradient-7);
      }

      .cls-6 {
        fill: url(#linear-gradient-3);
      }

      .cls-7 {
        fill: #707983;
      }

      .cls-8 {
        fill: #c10016;
      }

      .cls-9 {
        fill: url(#linear-gradient-4);
      }
    </style>
    <linearGradient id="linear-gradient" x1="49.37" y1="-125.82" x2="49.37" y2="-151.61" gradientTransform="translate(0 -112.92) scale(1 -1)" gradientUnits="userSpaceOnUse">
      <stop offset="0" stop-color="#707983"/>
      <stop offset="1" stop-color="#33393f"/>
    </linearGradient>
    <linearGradient id="linear-gradient-2" x1="69.49" y1="-125.82" x2="69.49" y2="-151.61" xlink:href="#linear-gradient"/>
    <linearGradient id="linear-gradient-3" x1="88.93" x2="88.93" y2="-151.61" xlink:href="#linear-gradient"/>
    <linearGradient id="linear-gradient-4" x1="110.31" y1="-125.82" x2="110.31" y2="-151.61" xlink:href="#linear-gradient"/>
    <linearGradient id="linear-gradient-5" x1="129.94" y1="-125.82" x2="129.94" y2="-151.61" xlink:href="#linear-gradient"/>
    <linearGradient id="linear-gradient-6" x1="144.3" x2="144.3" y2="-151.61" xlink:href="#linear-gradient"/>
    <linearGradient id="linear-gradient-7" x1="152.17" y1="-125.82" x2="152.17" y2="-151.61" xlink:href="#linear-gradient"/>
  </defs>
  <g id="Layer_1-2" data-name="Layer 1">
    <g>
      <g>
        <path class="cls-1" d="m51.67,16.67c4.64,0,6.63,3.01,6.63,6.47,0,2.69-1.22,5.57-4.37,6.5l4.41,7.95c.17.31-.05.69-.41.69h-2.94c-.17,0-.32-.09-.41-.24l-4.57-8.12h-5.38c-.34,0-.52.16-.52.54v7.35c0,.26-.21.47-.47.47h-2.67c-.26,0-.47-.21-.47-.47v-8.08c0-2.43.98-3.43,3.24-3.43h8.04c2.05,0,2.87-1.47,2.87-3.01s-.89-2.85-2.87-2.85h-10.99c-.27,0-.48-.22-.47-.49l.03-2.85c.01-.25.22-.45.47-.45h10.83,0Z"/>
        <path class="cls-4" d="m72.19,21.38c3.82,0,5.44,1.92,5.44,5.19s-1.5,4.87-5.47,4.87h-7.67v1.22c0,1.34.7,2.34,2.48,2.34h9.4c.26,0,.47.21.47.47v2.37c0,.26-.21.47-.47.47h-9.4c-4.03,0-5.62-2.37-5.62-5.57v-5.77c0-3.2,1.59-5.57,5.62-5.57,0,0,5.23,0,5.23,0Zm-7.7,7.4h7.58c1.74,0,2.38-.77,2.38-2.02s-.7-2.11-2.29-2.11h-5.2c-1.77,0-2.48,1.03-2.48,2.34v1.79h0Z"/>
        <path class="cls-6" d="m97.16,14.04c.26,0,.47.21.47.47v16.54c0,4.87-2.08,7.24-5.93,7.24h-4.46c-4.31,0-7-2.76-7-8.46s2.69-8.46,7-8.46h7.12v-6.87c0-.26.21-.47.47-.47h2.34Zm-2.8,16.85v-6.25h-6.81c-2.78,0-4.03,1.54-4.03,5.19s1.25,5.16,4.03,5.16h3.21c2.6,0,3.61-1.22,3.61-4.1"/>
        <path class="cls-9" d="m117.96,17.14v2.85c0,.26-.21.47-.47.47h-10.11c-1.86,0-2.69,1.06-2.69,2.56,0,1.31.64,2.56,3.06,2.56h4.83c5.62,0,6.94,3.27,6.94,6.37,0,3.65-1.86,6.34-6.57,6.34h-11.02c-.26,0-.47-.21-.47-.47v-2.85c0-.26.21-.47.47-.47h11.14c1.96,0,2.84-1.12,2.84-2.69,0-1.41-.7-2.69-3.24-2.69h-4.8c-5.5,0-6.78-3.24-6.78-6.25,0-3.59,1.83-6.21,6.42-6.21h9.98c.26,0,.47.21.47.47"/>
        <path class="cls-3" d="m132.46,21.38c4.03,0,5.62,2.37,5.62,5.57v7.94c0,2.43-.61,3.39-3.33,3.39h-7.55c-3.82,0-5.41-1.95-5.41-5.16s1.47-4.87,5.44-4.87h7.67v-1.28c0-1.31-.7-2.34-2.48-2.34h-9.19c-.26,0-.47-.21-.47-.47v-2.33c0-.26.21-.47.47-.47h9.22Zm2.45,12.75v-3.17h-7.61c-1.71,0-2.32.74-2.32,1.99s.64,2.05,2.26,2.05h6.78c.64,0,.89-.26.89-.86"/>
        <path class="cls-2" d="m145.94,15.47v3.01c0,.26-.21.47-.47.47h-2.34c-.26,0-.47-.21-.47-.47v-3.01c0-.26.21-.47.47-.47h2.34c.26,0,.47.21.47.47m-.03,6.37v15.98c0,.26-.21.47-.47.47h-2.31c-.26,0-.47-.21-.47-.47v-15.98c0-.26.21-.47.47-.47h2.31c.26,0,.47.21.47.47"/>
        <path class="cls-5" d="m153.79,14.51v23.31c0,.26-.21.47-.47.47h-2.31c-.26,0-.47-.21-.47-.47V14.51c0-.26.21-.47.47-.47h2.31c.26,0,.47.21.47.47"/>
        <g>
          <path class="cls-7" d="m43.97,44.63h-3.29v-.85h7.56v.85h-3.29v8.49h-.99v-8.49h0Z"/>
          <path class="cls-7" d="m56.86,52.27v.85h-6.61v-9.35h6.41v.85h-5.42v3.33h4.84v.84h-4.84v3.47h5.62,0Z"/>
          <path class="cls-7" d="m61.11,52.59c-.74-.41-1.33-.98-1.75-1.7-.42-.73-.63-1.54-.63-2.44s.21-1.71.63-2.44c.42-.73,1.01-1.29,1.76-1.7s1.58-.61,2.51-.61c.69,0,1.34.12,1.92.35.59.23,1.09.57,1.5,1.02l-.63.63c-.73-.74-1.65-1.11-2.76-1.11-.74,0-1.41.17-2.02.51-.61.34-1.08.8-1.42,1.39s-.51,1.25-.51,1.98.17,1.39.51,1.98.82,1.05,1.42,1.39,1.28.51,2.02.51c1.12,0,2.04-.37,2.76-1.12l.63.63c-.41.44-.91.79-1.5,1.02s-1.23.35-1.93.35c-.93,0-1.76-.21-2.5-.61h0Z"/>
          <path class="cls-7" d="m77.38,43.77v9.35h-.97v-4.31h-5.85v4.31h-.99v-9.35h.99v4.17h5.85v-4.17h.97Z"/>
          <path class="cls-7" d="m88.67,43.77v9.35h-.82l-6.01-7.59v7.59h-.99v-9.35h.82l6.02,7.59v-7.59h.97Z"/>
          <path class="cls-7" d="m93.71,52.58c-.75-.41-1.34-.98-1.76-1.7-.42-.72-.63-1.53-.63-2.43s.21-1.71.63-2.43,1.01-1.29,1.76-1.7,1.59-.62,2.52-.62,1.76.21,2.5.61c.74.41,1.33.98,1.76,1.7.43.73.64,1.54.64,2.44s-.21,1.71-.64,2.44-1.01,1.29-1.76,1.7c-.74.41-1.58.61-2.5.61s-1.76-.21-2.52-.62h0Zm4.52-.76c.6-.33,1.06-.8,1.4-1.39s.51-1.25.51-1.98-.17-1.39-.51-1.98c-.34-.59-.81-1.06-1.4-1.39-.6-.33-1.27-.5-2-.5s-1.41.17-2.01.5c-.6.33-1.07.8-1.42,1.39-.34.59-.51,1.25-.51,1.98s.17,1.39.51,1.98c.34.59.82,1.06,1.42,1.39s1.27.5,2.01.5,1.41-.17,2-.5Z"/>
          <path class="cls-7" d="m103.78,43.77h.99v8.49h5.24v.85h-6.22v-9.35h0Z"/>
          <path class="cls-7" d="m113.45,52.58c-.75-.41-1.34-.98-1.76-1.7-.42-.72-.63-1.53-.63-2.43s.21-1.71.63-2.43,1.01-1.29,1.76-1.7,1.59-.62,2.52-.62,1.76.21,2.5.61c.74.41,1.33.98,1.76,1.7.43.73.64,1.54.64,2.44s-.21,1.71-.64,2.44-1.01,1.29-1.76,1.7c-.74.41-1.58.61-2.5.61s-1.76-.21-2.52-.62h0Zm4.52-.76c.6-.33,1.06-.8,1.4-1.39s.51-1.25.51-1.98-.17-1.39-.51-1.98c-.34-.59-.81-1.06-1.4-1.39-.6-.33-1.27-.5-2-.5s-1.41.17-2.01.5c-.6.33-1.07.8-1.42,1.39-.34.59-.51,1.25-.51,1.98s.17,1.39.51,1.98c.34.59.82,1.06,1.42,1.39s1.27.5,2.01.5,1.41-.17,2-.5Z"/>
          <path class="cls-7" d="m130.1,48.45h.95v3.57c-.44.38-.95.68-1.55.88-.6.21-1.22.31-1.88.31-.94,0-1.78-.21-2.52-.61s-1.34-.98-1.76-1.7c-.43-.73-.64-1.54-.64-2.44s.21-1.71.64-2.44,1.02-1.29,1.76-1.7c.75-.41,1.59-.61,2.54-.61.71,0,1.37.11,1.96.34s1.1.56,1.51,1.01l-.61.63c-.74-.73-1.68-1.1-2.82-1.1-.76,0-1.44.17-2.05.5-.61.33-1.09.8-1.44,1.39-.35.59-.52,1.25-.52,1.98s.17,1.39.52,1.98.82,1.05,1.43,1.39,1.29.51,2.04.51c.96,0,1.78-.24,2.44-.72v-3.15h0Z"/>
          <path class="cls-7" d="m134.25,43.77h.99v9.35h-.99v-9.35Z"/>
          <path class="cls-7" d="m145.33,52.27v.85h-6.61v-9.35h6.41v.85h-5.42v3.33h4.84v.84h-4.84v3.47h5.62,0Z"/>
          <path class="cls-7" d="m148.66,52.87c-.64-.22-1.13-.52-1.48-.88l.39-.76c.34.34.79.61,1.35.82.56.21,1.14.31,1.74.31.84,0,1.47-.15,1.88-.46s.63-.71.63-1.2c0-.37-.11-.67-.34-.89-.23-.22-.5-.39-.83-.51-.33-.12-.79-.25-1.37-.39-.7-.18-1.27-.35-1.68-.51s-.78-.42-1.08-.75-.45-.8-.45-1.37c0-.47.12-.9.37-1.29.25-.39.63-.7,1.15-.93.52-.23,1.16-.35,1.92-.35.53,0,1.06.07,1.57.22s.96.35,1.33.61l-.33.79c-.39-.26-.81-.45-1.26-.58-.44-.13-.88-.19-1.31-.19-.82,0-1.44.16-1.85.47-.41.32-.62.72-.62,1.22,0,.37.11.68.34.9.23.23.51.4.85.52s.8.25,1.38.39c.69.17,1.24.34,1.66.5.42.16.78.41,1.08.75.29.33.44.79.44,1.36,0,.47-.13.9-.38,1.29-.25.39-.64.69-1.17.92s-1.17.34-1.94.34c-.69,0-1.36-.11-2-.33h0Z"/>
        </g>
        <path class="cls-8" d="m18.16,0s-2.11,40.23,15.09,63.41c0,0-20.15-6.23-33.15-13.02C-1.33,31.45,12.8,6.52,18.16,0"/>
        <path class="cls-8" d="m30.57,53.13h7.62s-14.13-9.69-18.24-38.47c1.68,25.79,10.63,38.47,10.63,38.47"/>
      </g>
      <path class="cls-7" d="m159.16,45.54c0,1.05-.82,1.87-1.86,1.87s-1.85-.82-1.85-1.86.81-1.86,1.86-1.86,1.85.8,1.85,1.85Zm-.36,0c0-.86-.63-1.51-1.5-1.51s-1.5.66-1.5,1.52.63,1.52,1.49,1.52,1.51-.67,1.51-1.53Zm-.95.32l.41.63h-.5l-.35-.54h-.33v.54h-.5v-1.88h.82c.51,0,.82.26.82.67,0,.28-.13.47-.35.58h0Zm-.5-.29c.23,0,.36-.11.36-.29s-.13-.3-.36-.3h-.29v.59h.29Z"/>
    </g>
  </g>
</svg>