<?xml version="1.0" encoding="UTF-8"?>
<svg id="Layer_2" data-name="Layer 2" xmlns="http://www.w3.org/2000/svg" viewBox="0 0 385.38 96.52">
  <defs>
    <style>
      .cls-1 {
        fill: #072b7f;
      }

      .cls-1, .cls-2 {
        stroke-width: 0px;
      }

      .cls-2 {
        fill: #05c1aa;
      }
    </style>
  </defs>
  <g id="Layer_1-2" data-name="Layer 1">
    <g>
      <g>
        <path class="cls-1" d="m62.61,22.55l-3.33-3.33c3.21,10.96.5,23.31-8.13,31.94l-20.03,20.03,5.57,5.57,5.89,5.89,5.57,5.57c11.06,11.06,29,11.06,40.07,0,11.06-11.06,11.06-29,0-40.07l-5.57-5.57-14.46-14.46-5.57-5.57h0Z"/>
        <path class="cls-2" d="m8.3,8.3c-11.06,11.06-11.06,29,0,40.07l20.03,20.03,20.03-20.03c11.06-11.06,11.06-29,0-40.07-11.06-11.06-29-11.06-40.07,0Zm32.51,32.51c-6.89,6.89-18.07,6.89-24.96,0-6.89-6.89-6.89-18.07,0-24.96,6.89-6.89,18.07-6.89,24.96,0,6.89,6.89,6.89,18.07,0,24.96Z"/>
      </g>
      <g>
        <path class="cls-1" d="m125.29,16.64h25.58c5.55,0,10.06,1.61,13.53,4.81,3.47,3.21,5.21,7.1,5.21,11.66,0,6.31-3.28,10.98-9.84,14.01,2.88,1.31,5.61,4.83,8.2,10.57,2.59,5.73,5.09,11.15,7.5,16.23h-15.66c-.94-1.89-2.56-5.48-4.89-10.78-2.32-5.3-4.31-8.71-5.96-10.21-1.65-1.5-3.42-2.25-5.31-2.25h-4.1v23.25h-14.27V16.64Zm14.27,10.5v13.04h7.54c2.41,0,4.31-.57,5.72-1.7,1.41-1.13,2.11-2.75,2.11-4.86,0-4.32-2.72-6.48-8.16-6.48h-7.22Z"/>
        <path class="cls-1" d="m220.66,35.21l-15.26,18.91,16.4,19.79h-14.14l-9.11-12-8.79,12h-13.71l15.79-19.76-15.79-18.94h14.19l8.33,11.18,7.9-11.18h14.19Z"/>
        <path class="cls-2" d="m259.26,37.87l18.41-21.24h12.4v57.28h-14.27v-35.75l-15.47,17.96h-2.14l-15.47-17.96v35.75h-14.27V16.64h12.39l18.42,21.24Z"/>
        <path class="cls-2" d="m300.98,22.62c0-1.86.66-3.44,1.97-4.76,1.31-1.31,2.89-1.97,4.72-1.97s3.44.66,4.76,1.97c1.31,1.31,1.97,2.9,1.97,4.76s-.66,3.41-1.97,4.74c-1.31,1.33-2.9,1.99-4.76,1.99s-3.4-.66-4.72-1.99c-1.31-1.33-1.97-2.9-1.97-4.74Zm12.83,12.59v38.7h-12.18v-38.7h12.18Z"/>
        <path class="cls-2" d="m336.57,16.64v57.28h-12.18V16.64h12.18Z"/>
        <path class="cls-2" d="m384.66,61.9v7.67c-4.65,3.39-10.4,5.08-17.26,5.08s-12.25-1.82-16.32-5.48c-4.07-3.65-6.11-8.49-6.11-14.51s1.91-10.76,5.74-14.57c3.83-3.8,8.7-5.71,14.64-5.71s10.84,2,14.66,6.01c3.81,4,5.6,9.37,5.35,16.09h-27.8c.24,3.51,1.49,6.21,3.73,8.11,2.24,1.89,5.25,2.84,9.02,2.84,4.56,0,9.35-1.84,14.35-5.53Zm-26.85-11.81h16.81c-.66-5.63-3.46-8.45-8.4-8.45s-7.8,2.82-8.4,8.45Z"/>
      </g>
    </g>
  </g>
</svg>